<?xml version="1.0" standalone="no"?>
<!DOCTYPE svg PUBLIC "-//W3C//DTD SVG 20010904//EN"
 "http://www.w3.org/TR/2001/REC-SVG-20010904/DTD/svg10.dtd">
<svg version="1.0" xmlns="http://www.w3.org/2000/svg"
 width="16.000000pt" height="16.000000pt" viewBox="0 0 16.000000 16.000000"
 preserveAspectRatio="xMidYMid meet">
<metadata>
Created by potrace 1.11, written by Peter Selinger 2001-2013
</metadata>
<g transform="translate(0.000000,16.000000) scale(0.006250,-0.006250)"
fill="#000000" stroke="none">
<path d="M1764 2423 c-31 -65 -78 -163 -104 -218 -26 -55 -82 -171 -124 -258
-42 -87 -76 -160 -76 -162 0 -2 -162 -342 -192 -403 -12 -23 -12 -23 -24 10
-7 18 -45 141 -85 273 -39 132 -76 245 -81 250 -6 7 -9 7 -7 0 2 -9 -2 -39
-17 -120 -2 -11 -31 -182 -64 -380 -68 -401 -68 -400 -74 -435 -3 -14 -8 -41
-10 -60 -3 -19 -8 -46 -10 -60 -7 -32 -123 -723 -132 -775 -3 -22 -4 -38 -1
-35 3 3 54 152 112 330 278 844 271 825 282 805 5 -11 34 -100 63 -197 30 -98
57 -175 60 -170 4 4 80 243 169 532 90 289 169 543 176 565 8 22 44 135 80
250 36 116 79 247 94 293 15 45 26 82 25 82 -2 0 -29 -53 -60 -117z"/>
</g>
</svg>
